HIERARCHY
ROOT Hips
{
  OFFSET -331.093 83.8371 -317.828
  CHANNELS 6 Xposition Yposition Zposition Zrotation Xrotation Yrotation
  JOINT LeftUpLeg
  {
    OFFSET 8.64259 1.95398 -2.38835
    CHANNELS 3 Zrotation Xrotation Yrotation
    JOINT LeftLeg
    {
      OFFSET 43.7702 0 0
      CHANNELS 3 Zrotation Xrotation Yrotation
      JOINT LeftFoot
      {
        OFFSET 40.6238 0 0
        CHANNELS 3 Zrotation Xrotation Yrotation
        JOINT LeftToeBase
        {
          OFFSET 12.7242 0 0
          CHANNELS 3 Zrotation Xrotation Yrotation
          End Site
          {
            OFFSET 0 0 0
          }
        }
      }
    }
  }
  JOINT RightUpLeg
  {
    OFFSET -8.2249 1.95398 -2.59336
    CHANNELS 3 Zrotation Xrotation Yrotation
    JOINT RightLeg
    {
      OFFSET 43.5653 0 0
      CHANNELS 3 Zrotation Xrotation Yrotation
      JOINT RightFoot
      {
        OFFSET 40.6238 0 0
        CHANNELS 3 Zrotation Xrotation Yrotation
        JOINT RightToeBase
        {
          OFFSET 12.7242 0 0
          CHANNELS 3 Zrotation Xrotation Yrotation
          End Site
          {
            OFFSET 0 0 0
          }
        }
      }
    }
  }
  JOINT Spine
  {
    OFFSET 0.165834 0.87714 6.61349
    CHANNELS 3 Zrotation Xrotation Yrotation
    JOINT Spine1
    {
      OFFSET 7.38963 1.71661e-005 0
      CHANNELS 3 Zrotation Xrotation Yrotation
      JOINT Spine2
      {
        OFFSET 11.9445 1.14441e-005 0
        CHANNELS 3 Zrotation Xrotation Yrotation
        JOINT Spine3
        {
          OFFSET 14.7254 4.19617e-005 0
          CHANNELS 3 Zrotation Xrotation Yrotation
          JOINT Spine4
          {
            OFFSET 10.9679 0 0
            CHANNELS 3 Zrotation Xrotation Yrotation
            JOINT RightShoulder
            {
              OFFSET 2.46616 -1.6653 3.69651
              CHANNELS 3 Zrotation Xrotation Yrotation
              JOINT RightArm
              {
                OFFSET 13.0012 0 0
                CHANNELS 3 Zrotation Xrotation Yrotation
                JOINT RightForeArm
                {
                  OFFSET 28.7848 1.62311e-005 0
                  CHANNELS 3 Zrotation Xrotation Yrotation
                  JOINT RightHand
                  {
                    OFFSET 26.5688 1.62095e-005 0
                    CHANNELS 3 Zrotation Xrotation Yrotation
                    End Site
                    {
                      OFFSET 0 0 0
                    }
                  }
                }
              }
            }
            JOINT LeftShoulder
            {
              OFFSET 2.38034 -1.29275 -3.7523
              CHANNELS 3 Zrotation Xrotation Yrotation
              JOINT LeftArm
              {
                OFFSET 16.3182 6.07031e-005 0
                CHANNELS 3 Zrotation Xrotation Yrotation
                JOINT LeftForeArm
                {
                  OFFSET 27.0901 0 0
                  CHANNELS 3 Zrotation Xrotation Yrotation
                  JOINT LeftHand
                  {
                    OFFSET 24.5451 1.51738e-005 0
                    CHANNELS 3 Zrotation Xrotation Yrotation
                    End Site
                    {
                      OFFSET 0 0 0
                    }
                  }
                }
              }
            }
            JOINT Neck
            {
              OFFSET 5.0226 -0.0266342 0
              CHANNELS 3 Zrotation Xrotation Yrotation
              JOINT Head
              {
                OFFSET 6.69364 2.86102e-005 0
                CHANNELS 3 Zrotation Xrotation Yrotation
                End Site
                {
                  OFFSET 0 0 0
                }
              }
            }
          }
        }
      }
    }
  }
}
MOTION
Frames:	11
Frame Time:	0.0416667
-318.923 78.2929 -320.712 78.8868 -39.6864 82.7238 -169.882 70.8991 85.1021 -57.2425 21.0722 1.99477 83.6611 28.5339 -23.2113 -10.3515 -36.7291 27.7593 178.167 59.9967 98.0996 -87.7617 20.8081 -3.35674 18.7302 15.5224 25.5868 48.7943 10.8993 36.4714 -0.629872 8.08031 -90.285 10.7109 -1.38561 -0.439505 -0.959351 -1.40361 -0.37809 -23.4986 -1.18947 -0.835674 -3.4859 -1.18947 -0.835661 90.1688 -43.7164 -101.703 19.1713 17.3468 23.7498 -12.5876 1.0086 -145.206 10.843 -0.986774 -11.9332 -97.6209 -48.0886 67.3366 -27.5184 16.7636 12.3389 -3.57517 -7.22651 -64.6332 33.0342 1.64684 1.06913 12.4094 1.41605 2.69281 1.7697 0.773474 1.81041 
-312.011 80.0006 -314.227 75.6256 -44.6735 80.7505 -168.93 69.9765 89.6451 -78.8001 16.7293 2.45652 102.488 28.2913 -23.526 -9.7084 -36.4808 28.7665 177.717 48.1747 100.25 -81.3999 8.41772 -4.28575 23.6164 15.209 20.1816 91.5884 19.5534 26.5319 0.28441 7.96608 -90.0513 10.9483 0.542291 -0.159071 -0.722574 0.534775 -0.182786 -23.2589 0.565039 0.0112644 -3.2462 0.565048 0.0112758 90.1959 -41.589 -102.236 26.1757 18.3336 9.52517 -14.0445 0.500845 -135.67 10.1205 -0.709287 -9.69117 -98.066 -47.8561 66.5955 -30.247 13.4053 21.8445 -3.36888 -5.95151 -62.6037 33.8072 1.89231 1.68719 16.1303 0.140361 0.790363 -1.92631 -0.0847743 2.04824 
-302.242 85.1209 -305.026 73.2553 -48.8142 75.0389 -163.529 59.4989 86.1429 -84.8333 15.3319 0.639349 84.3679 14.1006 -7.87293 6.23554 -18.4362 26.2497 179.644 25.1833 96.1323 -60.1687 -3.76368 -7.16614 25.0355 14.0469 16.2801 116.483 17.9349 16.8278 1.11427 7.66736 -89.5315 11.5303 2.4361 0.686783 -0.138483 2.46395 0.578828 -22.6866 2.11705 1.38742 -2.67396 2.11704 1.38742 92.0946 -36.7484 -100.246 31.8228 16.448 3.42355 -15.6647 -1.49521 -128.088 4.14866 -0.604747 -12.9102 -96.2562 -48.3656 69.4513 -35.8363 15.3287 35.3192 -3.30366 -7.05563 -72.3876 32.1388 2.22795 3.06609 14.8058 -1.67173 2.71606 -3.36141 -2.34936 0.611667 
-289.425 89.9841 -293.795 73.8401 -48.9257 74.2799 -167.111 57.9921 87.0099 -67.0556 15.2723 -2.53334 53.9917 -5.26181 2.09684 27.421 3.65486 20.4254 176.736 3.59956 88.1805 -38.9383 -13.3781 -8.17304 31.8701 12.3816 12.6933 95.5612 6.49977 9.67049 1.49391 7.43618 -89.2781 11.9888 3.31063 1.07956 0.321785 3.35495 0.932651 -22.2363 2.83309 2.02521 -2.22361 2.83309 2.0252 92.8714 -33.8137 -99.6098 33.8584 11.6044 3.07278 -20.1283 -6.57041 -122.236 -10.2263 0.889068 -18.0444 -93.088 -45.927 73.4994 -43.3556 14.4716 45.2749 -2.22521 -7.62896 -78.3947 34.3191 2.37034 3.06961 12.3764 -3.3769 3.97607 -3.31425 -4.24119 -2.23374 
-275.569 93.8812 -282.021 73.6701 -48.0337 74.0422 -174.186 51.4508 90.2018 -36.2563 22.3391 -4.62432 49.6798 -6.49415 4.23705 31.8173 7.97241 19.1278 173.339 -5.90822 87.1975 -35.3482 -17.8321 -9.35653 51.5963 5.94302 4.1166 5.13595 0.569059 -1.81457 1.7106 7.2236 -89.1396 12.409 3.80789 1.28333 0.743184 3.86066 1.11429 -21.8216 3.24609 2.36926 -1.80891 3.24609 2.36926 93.3207 -32.6987 -99.0523 34.721 1.07597 5.26168 -25.2232 -5.89005 -121.999 -24.649 2.31935 -16.9822 -92.4155 -43.8723 73.9506 -46.6606 9.4236 50.7547 0.58241 -7.70589 -84.0545 35.1787 2.84554 4.25207 10.2916 -4.56289 3.76452 -3.34992 -5.27304 -3.16192 
-262.93 94.8569 -270.994 74.8803 -45.4127 78.1472 -176.633 46.2033 91.2974 -24.6755 17.4027 -3.53443 49.9583 -6.77012 0.539121 35.2023 12.6236 21.6386 175.559 -4.90741 92.3143 -52.4922 -13.7911 -7.35939 70.8278 -4.25593 -2.73499 -15.6245 8.55619 -28.5603 1.55404 7.05925 -89.4495 12.7483 3.34946 0.700977 1.08156 3.37707 0.552711 -21.4808 2.98384 1.676 -1.46819 2.98383 1.67599 93.5729 -32.8427 -98.5314 37.0055 -12.9446 9.56495 -24.0857 5.92285 -118.617 -26.6995 2.52073 -16.6541 -90.6879 -43.486 76.585 -47.708 8.8471 48.7086 4.24895 -7.41837 -85.5871 35.8621 2.28186 2.48271 8.23967 -4.91255 2.98387 -2.11413 -5.42784 -3.52917 
-250.897 94.0394 -259.994 81.4358 -43.8996 82.4058 -173.893 37.8298 87.5399 -31.8347 16.892 -4.21816 52.6881 -4.75015 2.17112 36.6593 10.5769 13.0173 174.568 2.66688 94.9367 -81.31 -7.25513 -4.95533 74.7122 -5.9114 -3.7431 -16.4151 9.56834 -31.2371 1.20002 7.3973 -89.3791 12.0693 2.67892 0.945396 0.400871 2.7179 0.826498 -22.1484 2.27092 1.70709 -2.13578 2.27092 1.70708 92.7356 -36.2116 -99.2265 38.8826 -21.8683 16.6176 -23.4688 10.0222 -104.005 -31.7279 5.11813 -23.8242 -91.3586 -45.6463 76.096 -43.0199 6.77519 43.7967 4.23611 -6.99323 -88.7741 35.0816 2.83618 4.24103 4.19788 -4.60908 1.25677 0.971568 -4.84389 -3.79581 
-239.231 92.6091 -250.061 85.9585 -44.2678 83.9377 -172.412 28.4717 84.5617 -41.9232 15.6955 -4.58915 63.031 4.99974 8.69102 39.7647 8.56508 0.739117 175.679 15.6792 91.0358 -95.8097 3.28183 -3.37397 52.3664 1.96193 0.856812 18.2566 -0.166915 -25.2851 0.826764 7.66711 -89.0597 11.5239 2.08471 1.6607 -0.146237 2.15577 1.56733 -22.6813 1.4893 2.21036 -2.66862 1.48931 2.21036 91.5492 -39.5016 -100.483 41.8627 -23.8111 23.7284 -23.2087 0.372977 -89.4723 -39.2041 4.19348 -17.9161 -91.8993 -47.2842 75.6847 -37.5522 6.27381 35.8935 5.39969 -6.48773 -91.2852 36.4744 2.97226 4.3044 0.620716 -3.36834 -0.348965 4.98841 -3.49417 -3.82938 
-228.591 90.9019 -241.138 83.1231 -39.6065 81.3453 -173.912 24.6157 82.3652 -48.3347 16.2456 -2.96481 67.1535 9.70782 12.0577 51.3641 17.7355 0.361097 172.175 36.5742 90.4285 -104.019 10.6227 -2.46503 49.3466 0.620593 0.399556 27.4751 -0.793433 -7.64213 -0.0743504 7.59545 -88.9061 11.6745 0.365241 2.14223 0.00189546 0.459153 2.1241 -22.5192 -0.295333 2.15298 -2.50655 -0.295311 2.15298 90.7471 -42.0794 -101.176 41.9698 -23.3766 27.5394 -30.1628 -7.28047 -76.8724 -22.2306 -0.0811994 -5.59381 -95.1025 -49.0419 71.3733 -28.6373 6.26452 23.237 6.98896 -6.10553 -93.033 37.3865 3.5663 5.72007 4.59149 -2.57792 -1.75211 3.29877 -2.33984 -2.78558 
-216.651 91.9571 -230.436 84.4775 -35.2098 83.5371 -176.003 10.2686 84.151 -42.5625 22.6139 -0.745114 65.6844 7.55348 9.6453 55.8762 25.4806 6.68245 167.69 47.5714 92.6696 -97.4505 10.459 -1.16916 52.3818 0.664925 0.452608 27.8071 -0.993524 -9.12049 -0.811885 7.5993 -89.1934 11.6821 -1.23649 1.73727 0.0105895 -1.15884 1.78999 -22.524 -1.7014 1.2854 -2.51133 -1.70141 1.28541 90.5991 -43.6807 -101.004 44.2236 -25.1865 37.3392 -10.3652 -0.539681 -72.6704 -30.0924 -1.42096 0.450858 -93.1703 -45.8706 73.3534 -28.0928 8.35574 14.6717 7.96456 -7.7776 -98.2547 37.4063 3.65769 5.96514 4.36507 -1.70871 -2.74828 2.48911 -1.22008 -0.839588 
-203.918 94.5001 -218.76 84.817 -35.8256 85.0967 -174.396 -3.97149 93.4417 -25.5956 25.658 0.0491368 54.0634 -4.64603 -2.41702 43.7883 20.4519 18.5065 171.495 50.0576 92.5128 -76.1611 4.65864 0.341108 51.5993 2.96507 2.12933 29.9326 -1.56289 -12.2623 -1.02893 7.4351 -89.5852 12.0157 -1.84979 1.0315 0.345638 -1.8026 1.11192 -22.1995 -2.07425 0.4277 -2.18681 -2.07425 0.427699 91.4435 -42.6018 -99.8797 48.0022 -25.7435 47.5609 -14.412 -0.718624 -75.9391 -27.5099 -0.922956 -1.34393 -91.5467 -44.5826 75.5167 -29.3699 9.43285 14.0253 10.1322 -10.8713 -110.385 34.9853 3.33562 5.74702 3.33877 -0.572322 -3.08961 2.32704 0.0492875 2.47123 
